<mxfile host="app.diagrams.net" agent="Mozilla/5.0 (Windows NT 10.0; Win64; x64) AppleWebKit/537.36 (KHTML, like Gecko) Chrome/134.0.0.0 Safari/537.36" version="26.1.0">
  <diagram name="Page-1" id="2QgbFng5fBqmu4OjDuMm">
    <mxGraphModel dx="1434" dy="1844" grid="1" gridSize="10" guides="1" tooltips="1" connect="1" arrows="1" fold="1" page="1" pageScale="1" pageWidth="850" pageHeight="1100" math="0" shadow="0">
      <root>
        <mxCell id="0" />
        <mxCell id="1" parent="0" />
        <mxCell id="H5fF8uCBY2ygvBB53Js9-26" style="edgeStyle=orthogonalEdgeStyle;curved=1;rounded=0;orthogonalLoop=1;jettySize=auto;html=1;" edge="1" parent="1" source="H5fF8uCBY2ygvBB53Js9-3" target="H5fF8uCBY2ygvBB53Js9-25">
          <mxGeometry relative="1" as="geometry" />
        </mxCell>
        <mxCell id="H5fF8uCBY2ygvBB53Js9-3" value="&lt;div style=&quot;&quot;&gt;&lt;span style=&quot;background-color: transparent; color: light-dark(rgb(0, 0, 0), rgb(255, 255, 255));&quot;&gt;- Introducing the concept of &lt;br&gt;&lt;b&gt;&lt;i&gt;&quot;Counting (Natural) Numbers [&lt;/i&gt;&lt;/b&gt;&lt;/span&gt;&lt;span style=&quot;background-color: transparent; color: light-dark(rgb(0, 0, 0), rgb(255, 255, 255));&quot;&gt;&lt;b&gt;&lt;i&gt;1-9]&quot;&lt;/i&gt;&lt;/b&gt;&lt;/span&gt;&lt;/div&gt;&lt;div style=&quot;&quot;&gt;&lt;span style=&quot;background-color: transparent; color: light-dark(rgb(0, 0, 0), rgb(255, 255, 255));&quot;&gt;&lt;b&gt;&lt;i&gt;&lt;br&gt;&lt;/i&gt;&lt;/b&gt;&lt;/span&gt;&lt;/div&gt;&lt;div style=&quot;&quot;&gt;&lt;span style=&quot;background-color: transparent; color: light-dark(rgb(0, 0, 0), rgb(255, 255, 255));&quot;&gt;- Understanding the above concept through modeling using:&lt;/span&gt;&lt;/div&gt;&lt;div style=&quot;&quot;&gt;&lt;div style=&quot;&quot;&gt;&lt;span style=&quot;background-color: transparent; color: light-dark(rgb(0, 0, 0), rgb(255, 255, 255));&quot;&gt;1. Real-World Objects&lt;/span&gt;&lt;/div&gt;&lt;div style=&quot;&quot;&gt;2. Base-10 Blocks&lt;/div&gt;&lt;div style=&quot;&quot;&gt;3. Number Line&lt;/div&gt;&lt;div style=&quot;&quot;&gt;&lt;br&gt;&lt;/div&gt;&lt;div style=&quot;&quot;&gt;- Note: Base-10 Blocks and Number Line modeling techniques needs introduction and explanation before usage.&lt;/div&gt;&lt;/div&gt;" style="rounded=1;whiteSpace=wrap;html=1;arcSize=15;spacingLeft=8;spacingRight=8;align=left;" vertex="1" parent="1">
          <mxGeometry x="1295" y="-500" width="270" height="210" as="geometry" />
        </mxCell>
        <mxCell id="H5fF8uCBY2ygvBB53Js9-11" style="edgeStyle=orthogonalEdgeStyle;curved=1;rounded=0;orthogonalLoop=1;jettySize=auto;html=1;" edge="1" parent="1" source="H5fF8uCBY2ygvBB53Js9-4" target="H5fF8uCBY2ygvBB53Js9-10">
          <mxGeometry relative="1" as="geometry" />
        </mxCell>
        <mxCell id="H5fF8uCBY2ygvBB53Js9-4" value="Whole Numbers&lt;div&gt;(0-9)&lt;/div&gt;" style="rounded=1;whiteSpace=wrap;html=1;arcSize=28;" vertex="1" parent="1">
          <mxGeometry x="1905" y="-210" width="120" height="60" as="geometry" />
        </mxCell>
        <mxCell id="H5fF8uCBY2ygvBB53Js9-8" value="Comparing Numbers&lt;div&gt;(0-9)&lt;/div&gt;" style="rounded=1;whiteSpace=wrap;html=1;arcSize=28;" vertex="1" parent="1">
          <mxGeometry x="1805" y="270" width="120" height="60" as="geometry" />
        </mxCell>
        <mxCell id="H5fF8uCBY2ygvBB53Js9-23" style="edgeStyle=orthogonalEdgeStyle;curved=1;rounded=0;orthogonalLoop=1;jettySize=auto;html=1;" edge="1" parent="1" source="H5fF8uCBY2ygvBB53Js9-10" target="H5fF8uCBY2ygvBB53Js9-17">
          <mxGeometry relative="1" as="geometry" />
        </mxCell>
        <mxCell id="H5fF8uCBY2ygvBB53Js9-10" value="&lt;div&gt;Modeling Numbers&amp;nbsp;&lt;span style=&quot;background-color: transparent; color: light-dark(rgb(0, 0, 0), rgb(255, 255, 255));&quot;&gt;(0-9)&lt;/span&gt;&lt;span style=&quot;background-color: transparent; color: light-dark(rgb(0, 0, 0), rgb(255, 255, 255));&quot;&gt;&amp;nbsp;&lt;/span&gt;&lt;/div&gt;&lt;div&gt;&lt;span style=&quot;background-color: transparent; color: light-dark(rgb(0, 0, 0), rgb(255, 255, 255));&quot;&gt;using:&amp;nbsp;&lt;/span&gt;&lt;/div&gt;&lt;div&gt;&lt;span style=&quot;background-color: transparent; color: light-dark(rgb(0, 0, 0), rgb(255, 255, 255));&quot;&gt;1. Real-World Objects&lt;/span&gt;&lt;/div&gt;&lt;div&gt;2. Base-10 Blocks&lt;/div&gt;&lt;div&gt;3. Number Line&lt;/div&gt;" style="rounded=1;whiteSpace=wrap;html=1;arcSize=28;" vertex="1" parent="1">
          <mxGeometry x="1815" y="-40" width="170" height="100" as="geometry" />
        </mxCell>
        <mxCell id="H5fF8uCBY2ygvBB53Js9-17" value="Modeling Number Comparison (0-9)&lt;div&gt;using:&lt;/div&gt;&lt;div&gt;1. Real-World Objects&lt;/div&gt;&lt;div&gt;2. Base-10 Blocks&lt;/div&gt;&lt;div&gt;3. Number Line&lt;/div&gt;&lt;div&gt;4. Inequality Notations&lt;/div&gt;" style="rounded=1;whiteSpace=wrap;html=1;arcSize=28;" vertex="1" parent="1">
          <mxGeometry x="1780" y="140" width="225" height="100" as="geometry" />
        </mxCell>
        <mxCell id="H5fF8uCBY2ygvBB53Js9-25" value="&lt;div style=&quot;&quot;&gt;&lt;span style=&quot;background-color: transparent; color: light-dark(rgb(0, 0, 0), rgb(255, 255, 255));&quot;&gt;- Introducing the concept of &lt;br&gt;&lt;b&gt;&lt;i&gt;&quot;Zero &amp;amp; Whole Numbers [0&lt;/i&gt;&lt;/b&gt;&lt;/span&gt;&lt;span style=&quot;background-color: transparent; color: light-dark(rgb(0, 0, 0), rgb(255, 255, 255));&quot;&gt;&lt;b&gt;&lt;i&gt;-9]&quot;&lt;/i&gt;&lt;/b&gt;&lt;/span&gt;&lt;/div&gt;&lt;div style=&quot;&quot;&gt;&lt;span style=&quot;background-color: transparent; color: light-dark(rgb(0, 0, 0), rgb(255, 255, 255));&quot;&gt;&lt;b&gt;&lt;i&gt;&lt;br&gt;&lt;/i&gt;&lt;/b&gt;&lt;/span&gt;&lt;/div&gt;&lt;div style=&quot;&quot;&gt;&lt;span style=&quot;background-color: transparent; color: light-dark(rgb(0, 0, 0), rgb(255, 255, 255));&quot;&gt;- Understanding the above concept through modeling using:&lt;/span&gt;&lt;/div&gt;&lt;div style=&quot;&quot;&gt;&lt;div style=&quot;&quot;&gt;&lt;span style=&quot;background-color: transparent; color: light-dark(rgb(0, 0, 0), rgb(255, 255, 255));&quot;&gt;1. Real-World Objects&lt;/span&gt;&lt;/div&gt;&lt;div style=&quot;&quot;&gt;2. Base-10 Blocks&lt;/div&gt;&lt;div style=&quot;&quot;&gt;3. Number Line&lt;/div&gt;&lt;/div&gt;" style="rounded=1;whiteSpace=wrap;html=1;arcSize=18;spacingLeft=8;spacingRight=8;align=left;" vertex="1" parent="1">
          <mxGeometry x="1615" y="-490" width="260" height="160" as="geometry" />
        </mxCell>
        <mxCell id="H5fF8uCBY2ygvBB53Js9-64" style="edgeStyle=orthogonalEdgeStyle;curved=1;rounded=0;orthogonalLoop=1;jettySize=auto;html=1;entryX=0;entryY=0.5;entryDx=0;entryDy=0;" edge="1" parent="1" source="H5fF8uCBY2ygvBB53Js9-36" target="H5fF8uCBY2ygvBB53Js9-51">
          <mxGeometry relative="1" as="geometry" />
        </mxCell>
        <mxCell id="H5fF8uCBY2ygvBB53Js9-36" value="&lt;span style=&quot;color: light-dark(rgb(0, 0, 0), rgb(255, 255, 255)); font-weight: 400; text-align: left; background-color: transparent;&quot;&gt;&lt;b&gt;&lt;i&gt;&quot;Counting (Natural) Numbers [&lt;/i&gt;&lt;/b&gt;&lt;/span&gt;&lt;span style=&quot;color: light-dark(rgb(0, 0, 0), rgb(255, 255, 255)); font-weight: 400; text-align: left; background-color: transparent;&quot;&gt;&lt;b&gt;&lt;i&gt;1-9]&quot;&lt;/i&gt;&lt;/b&gt;&lt;/span&gt;" style="swimlane;whiteSpace=wrap;html=1;" vertex="1" parent="1">
          <mxGeometry x="40" y="-210" width="310" height="680" as="geometry">
            <mxRectangle x="40" y="-210" width="240" height="30" as="alternateBounds" />
          </mxGeometry>
        </mxCell>
        <mxCell id="H5fF8uCBY2ygvBB53Js9-42" style="edgeStyle=orthogonalEdgeStyle;curved=1;rounded=0;orthogonalLoop=1;jettySize=auto;html=1;" edge="1" parent="H5fF8uCBY2ygvBB53Js9-36" source="H5fF8uCBY2ygvBB53Js9-37" target="H5fF8uCBY2ygvBB53Js9-40">
          <mxGeometry relative="1" as="geometry" />
        </mxCell>
        <mxCell id="H5fF8uCBY2ygvBB53Js9-37" value="&lt;div style=&quot;&quot;&gt;&lt;span style=&quot;background-color: transparent; color: light-dark(rgb(0, 0, 0), rgb(255, 255, 255));&quot;&gt;Introducing&amp;nbsp;&lt;/span&gt;&lt;span style=&quot;background-color: transparent; color: light-dark(rgb(0, 0, 0), rgb(255, 255, 255));&quot;&gt;the above concept&lt;/span&gt;&lt;span style=&quot;background-color: transparent; color: light-dark(rgb(0, 0, 0), rgb(255, 255, 255));&quot;&gt;&amp;nbsp;in an approachable superficial way.&lt;/span&gt;&lt;/div&gt;" style="rounded=1;whiteSpace=wrap;html=1;arcSize=15;spacingLeft=8;spacingRight=8;align=left;" vertex="1" parent="H5fF8uCBY2ygvBB53Js9-36">
          <mxGeometry x="20" y="35" width="270" height="55" as="geometry" />
        </mxCell>
        <mxCell id="H5fF8uCBY2ygvBB53Js9-47" style="edgeStyle=orthogonalEdgeStyle;curved=1;rounded=0;orthogonalLoop=1;jettySize=auto;html=1;entryX=0.5;entryY=0;entryDx=0;entryDy=0;" edge="1" parent="H5fF8uCBY2ygvBB53Js9-36" source="H5fF8uCBY2ygvBB53Js9-40" target="H5fF8uCBY2ygvBB53Js9-44">
          <mxGeometry relative="1" as="geometry" />
        </mxCell>
        <mxCell id="H5fF8uCBY2ygvBB53Js9-40" value="&lt;div style=&quot;&quot;&gt;&lt;span style=&quot;background-color: transparent; color: light-dark(rgb(0, 0, 0), rgb(255, 255, 255));&quot;&gt;Understanding the above concept through modeling using:&lt;/span&gt;&lt;/div&gt;&lt;div style=&quot;&quot;&gt;&lt;div style=&quot;text-align: center;&quot;&gt;&lt;span style=&quot;background-color: transparent; color: light-dark(rgb(0, 0, 0), rgb(255, 255, 255));&quot;&gt;Real-World Objects&lt;/span&gt;&lt;/div&gt;&lt;/div&gt;" style="rounded=1;whiteSpace=wrap;html=1;arcSize=15;spacingLeft=8;spacingRight=8;align=left;" vertex="1" parent="H5fF8uCBY2ygvBB53Js9-36">
          <mxGeometry x="20" y="132" width="270" height="70" as="geometry" />
        </mxCell>
        <mxCell id="H5fF8uCBY2ygvBB53Js9-49" style="edgeStyle=orthogonalEdgeStyle;curved=1;rounded=0;orthogonalLoop=1;jettySize=auto;html=1;" edge="1" parent="H5fF8uCBY2ygvBB53Js9-36" source="H5fF8uCBY2ygvBB53Js9-43" target="H5fF8uCBY2ygvBB53Js9-45">
          <mxGeometry relative="1" as="geometry" />
        </mxCell>
        <mxCell id="H5fF8uCBY2ygvBB53Js9-43" value="&lt;div style=&quot;&quot;&gt;&lt;span style=&quot;background-color: transparent; color: light-dark(rgb(0, 0, 0), rgb(255, 255, 255));&quot;&gt;Understanding the above concept through modeling using:&lt;/span&gt;&lt;/div&gt;&lt;div style=&quot;&quot;&gt;&lt;div style=&quot;text-align: center;&quot;&gt;&lt;span style=&quot;background-color: transparent; color: light-dark(rgb(0, 0, 0), rgb(255, 255, 255));&quot;&gt;Base-10 Blocks&lt;/span&gt;&lt;/div&gt;&lt;/div&gt;" style="rounded=1;whiteSpace=wrap;html=1;arcSize=15;spacingLeft=8;spacingRight=8;align=left;" vertex="1" parent="H5fF8uCBY2ygvBB53Js9-36">
          <mxGeometry x="20" y="353" width="270" height="70" as="geometry" />
        </mxCell>
        <mxCell id="H5fF8uCBY2ygvBB53Js9-48" style="edgeStyle=orthogonalEdgeStyle;curved=1;rounded=0;orthogonalLoop=1;jettySize=auto;html=1;entryX=0.5;entryY=0;entryDx=0;entryDy=0;" edge="1" parent="H5fF8uCBY2ygvBB53Js9-36" source="H5fF8uCBY2ygvBB53Js9-44" target="H5fF8uCBY2ygvBB53Js9-43">
          <mxGeometry relative="1" as="geometry" />
        </mxCell>
        <mxCell id="H5fF8uCBY2ygvBB53Js9-44" value="&lt;div style=&quot;&quot;&gt;&lt;span style=&quot;background-color: transparent; color: light-dark(rgb(0, 0, 0), rgb(255, 255, 255)); text-align: center;&quot;&gt;Introducing Base-10 Blocks modeling technique using only &quot;Single Block&quot; representation for numbers, &amp;amp; how to use to model numbers&lt;/span&gt;&lt;/div&gt;" style="rounded=1;whiteSpace=wrap;html=1;arcSize=15;spacingLeft=8;spacingRight=8;align=left;" vertex="1" parent="H5fF8uCBY2ygvBB53Js9-36">
          <mxGeometry x="20" y="242" width="270" height="70" as="geometry" />
        </mxCell>
        <mxCell id="H5fF8uCBY2ygvBB53Js9-50" style="edgeStyle=orthogonalEdgeStyle;curved=1;rounded=0;orthogonalLoop=1;jettySize=auto;html=1;" edge="1" parent="H5fF8uCBY2ygvBB53Js9-36" source="H5fF8uCBY2ygvBB53Js9-45" target="H5fF8uCBY2ygvBB53Js9-46">
          <mxGeometry relative="1" as="geometry" />
        </mxCell>
        <mxCell id="H5fF8uCBY2ygvBB53Js9-45" value="&lt;div style=&quot;&quot;&gt;&lt;span style=&quot;background-color: transparent; color: light-dark(rgb(0, 0, 0), rgb(255, 255, 255)); text-align: center;&quot;&gt;Introducing Number Line modeling technique, &amp;amp; how to draw it, understanding what a coordinate represents on the number line, &amp;amp; how to use the number line to represent numbers&lt;/span&gt;&lt;/div&gt;" style="rounded=1;whiteSpace=wrap;html=1;arcSize=15;spacingLeft=8;spacingRight=8;align=left;" vertex="1" parent="H5fF8uCBY2ygvBB53Js9-36">
          <mxGeometry x="20" y="463" width="270" height="90" as="geometry" />
        </mxCell>
        <mxCell id="H5fF8uCBY2ygvBB53Js9-46" value="&lt;div style=&quot;&quot;&gt;&lt;span style=&quot;background-color: transparent; color: light-dark(rgb(0, 0, 0), rgb(255, 255, 255));&quot;&gt;Understanding the above concept through modeling using:&lt;/span&gt;&lt;/div&gt;&lt;div style=&quot;&quot;&gt;&lt;div style=&quot;text-align: center;&quot;&gt;&lt;span style=&quot;background-color: transparent; color: light-dark(rgb(0, 0, 0), rgb(255, 255, 255));&quot;&gt;Number Line&lt;/span&gt;&lt;/div&gt;&lt;/div&gt;" style="rounded=1;whiteSpace=wrap;html=1;arcSize=15;spacingLeft=8;spacingRight=8;align=left;" vertex="1" parent="H5fF8uCBY2ygvBB53Js9-36">
          <mxGeometry x="20" y="590" width="270" height="70" as="geometry" />
        </mxCell>
        <mxCell id="H5fF8uCBY2ygvBB53Js9-114" style="edgeStyle=orthogonalEdgeStyle;curved=1;rounded=0;orthogonalLoop=1;jettySize=auto;html=1;" edge="1" parent="1" source="H5fF8uCBY2ygvBB53Js9-51" target="H5fF8uCBY2ygvBB53Js9-102">
          <mxGeometry relative="1" as="geometry" />
        </mxCell>
        <mxCell id="H5fF8uCBY2ygvBB53Js9-51" value="&lt;span style=&quot;color: light-dark(rgb(0, 0, 0), rgb(255, 255, 255)); font-weight: 400; text-align: left; background-color: transparent;&quot;&gt;&lt;b&gt;&lt;i&gt;&quot;Whole (Zero &amp;amp; Counting) Numbers [0-9]&lt;/i&gt;&lt;/b&gt;&lt;/span&gt;&lt;span style=&quot;color: light-dark(rgb(0, 0, 0), rgb(255, 255, 255)); font-weight: 400; text-align: left; background-color: transparent;&quot;&gt;&lt;b&gt;&lt;i&gt;&quot;&lt;/i&gt;&lt;/b&gt;&lt;/span&gt;" style="swimlane;whiteSpace=wrap;html=1;" vertex="1" parent="1">
          <mxGeometry x="420" y="-220" width="310" height="570" as="geometry">
            <mxRectangle x="650" y="-210" width="280" height="30" as="alternateBounds" />
          </mxGeometry>
        </mxCell>
        <mxCell id="H5fF8uCBY2ygvBB53Js9-52" style="edgeStyle=orthogonalEdgeStyle;curved=1;rounded=0;orthogonalLoop=1;jettySize=auto;html=1;" edge="1" parent="H5fF8uCBY2ygvBB53Js9-51" source="H5fF8uCBY2ygvBB53Js9-53" target="H5fF8uCBY2ygvBB53Js9-55">
          <mxGeometry relative="1" as="geometry" />
        </mxCell>
        <mxCell id="H5fF8uCBY2ygvBB53Js9-53" value="&lt;div style=&quot;&quot;&gt;&lt;span style=&quot;background-color: transparent; color: light-dark(rgb(0, 0, 0), rgb(255, 255, 255));&quot;&gt;Introducing&amp;nbsp;&lt;/span&gt;&lt;span style=&quot;background-color: transparent; color: light-dark(rgb(0, 0, 0), rgb(255, 255, 255));&quot;&gt;the above concept&lt;/span&gt;&lt;span style=&quot;background-color: transparent; color: light-dark(rgb(0, 0, 0), rgb(255, 255, 255));&quot;&gt;&amp;nbsp;in an approachable superficial way.&lt;/span&gt;&lt;/div&gt;" style="rounded=1;whiteSpace=wrap;html=1;arcSize=15;spacingLeft=8;spacingRight=8;align=left;" vertex="1" parent="H5fF8uCBY2ygvBB53Js9-51">
          <mxGeometry x="20" y="35" width="270" height="55" as="geometry" />
        </mxCell>
        <mxCell id="H5fF8uCBY2ygvBB53Js9-54" style="edgeStyle=orthogonalEdgeStyle;curved=1;rounded=0;orthogonalLoop=1;jettySize=auto;html=1;entryX=0.5;entryY=0;entryDx=0;entryDy=0;" edge="1" parent="H5fF8uCBY2ygvBB53Js9-51" source="H5fF8uCBY2ygvBB53Js9-55" target="H5fF8uCBY2ygvBB53Js9-57">
          <mxGeometry relative="1" as="geometry">
            <mxPoint x="155" y="242" as="targetPoint" />
          </mxGeometry>
        </mxCell>
        <mxCell id="H5fF8uCBY2ygvBB53Js9-55" value="&lt;div style=&quot;&quot;&gt;&lt;span style=&quot;background-color: transparent; color: light-dark(rgb(0, 0, 0), rgb(255, 255, 255));&quot;&gt;Understanding the above concept through modeling using:&lt;/span&gt;&lt;/div&gt;&lt;div style=&quot;&quot;&gt;&lt;div style=&quot;text-align: center;&quot;&gt;&lt;span style=&quot;background-color: transparent; color: light-dark(rgb(0, 0, 0), rgb(255, 255, 255));&quot;&gt;Real-World Objects&lt;/span&gt;&lt;/div&gt;&lt;/div&gt;" style="rounded=1;whiteSpace=wrap;html=1;arcSize=15;spacingLeft=8;spacingRight=8;align=left;" vertex="1" parent="H5fF8uCBY2ygvBB53Js9-51">
          <mxGeometry x="20" y="139" width="270" height="70" as="geometry" />
        </mxCell>
        <mxCell id="H5fF8uCBY2ygvBB53Js9-56" style="edgeStyle=orthogonalEdgeStyle;curved=1;rounded=0;orthogonalLoop=1;jettySize=auto;html=1;" edge="1" parent="H5fF8uCBY2ygvBB53Js9-51" source="H5fF8uCBY2ygvBB53Js9-57" target="H5fF8uCBY2ygvBB53Js9-61">
          <mxGeometry relative="1" as="geometry" />
        </mxCell>
        <mxCell id="H5fF8uCBY2ygvBB53Js9-57" value="&lt;div style=&quot;&quot;&gt;&lt;span style=&quot;background-color: transparent; color: light-dark(rgb(0, 0, 0), rgb(255, 255, 255));&quot;&gt;Understanding the above concept through modeling using:&lt;/span&gt;&lt;/div&gt;&lt;div style=&quot;&quot;&gt;&lt;div style=&quot;text-align: center;&quot;&gt;&lt;span style=&quot;background-color: transparent; color: light-dark(rgb(0, 0, 0), rgb(255, 255, 255));&quot;&gt;Base-10 Blocks&lt;/span&gt;&lt;/div&gt;&lt;/div&gt;" style="rounded=1;whiteSpace=wrap;html=1;arcSize=15;spacingLeft=8;spacingRight=8;align=left;" vertex="1" parent="H5fF8uCBY2ygvBB53Js9-51">
          <mxGeometry x="20" y="260" width="270" height="70" as="geometry" />
        </mxCell>
        <mxCell id="H5fF8uCBY2ygvBB53Js9-60" style="edgeStyle=orthogonalEdgeStyle;curved=1;rounded=0;orthogonalLoop=1;jettySize=auto;html=1;" edge="1" parent="H5fF8uCBY2ygvBB53Js9-51" source="H5fF8uCBY2ygvBB53Js9-61" target="H5fF8uCBY2ygvBB53Js9-62">
          <mxGeometry relative="1" as="geometry" />
        </mxCell>
        <mxCell id="H5fF8uCBY2ygvBB53Js9-61" value="&lt;div style=&quot;&quot;&gt;&lt;span style=&quot;background-color: transparent; color: light-dark(rgb(0, 0, 0), rgb(255, 255, 255)); text-align: center;&quot;&gt;Introducing Origin to the Number Line&lt;/span&gt;&lt;/div&gt;" style="rounded=1;whiteSpace=wrap;html=1;arcSize=15;spacingLeft=8;spacingRight=8;align=left;" vertex="1" parent="H5fF8uCBY2ygvBB53Js9-51">
          <mxGeometry x="20" y="381" width="270" height="47" as="geometry" />
        </mxCell>
        <mxCell id="H5fF8uCBY2ygvBB53Js9-62" value="&lt;div style=&quot;&quot;&gt;&lt;span style=&quot;background-color: transparent; color: light-dark(rgb(0, 0, 0), rgb(255, 255, 255));&quot;&gt;Understanding the above concept through modeling using:&lt;/span&gt;&lt;/div&gt;&lt;div style=&quot;&quot;&gt;&lt;div style=&quot;text-align: center;&quot;&gt;&lt;span style=&quot;background-color: transparent; color: light-dark(rgb(0, 0, 0), rgb(255, 255, 255));&quot;&gt;Number Line&lt;/span&gt;&lt;/div&gt;&lt;/div&gt;" style="rounded=1;whiteSpace=wrap;html=1;arcSize=15;spacingLeft=8;spacingRight=8;align=left;" vertex="1" parent="H5fF8uCBY2ygvBB53Js9-51">
          <mxGeometry x="20" y="480" width="270" height="70" as="geometry" />
        </mxCell>
        <mxCell id="H5fF8uCBY2ygvBB53Js9-102" value="&lt;span style=&quot;color: light-dark(rgb(0, 0, 0), rgb(255, 255, 255)); font-weight: 400; text-align: left; background-color: transparent;&quot;&gt;&lt;b&gt;&lt;i&gt;&quot;Comparing Whole Numbers [0-9]&lt;/i&gt;&lt;/b&gt;&lt;/span&gt;&lt;span style=&quot;color: light-dark(rgb(0, 0, 0), rgb(255, 255, 255)); font-weight: 400; text-align: left; background-color: transparent;&quot;&gt;&lt;b&gt;&lt;i&gt;&quot;&lt;/i&gt;&lt;/b&gt;&lt;/span&gt;" style="swimlane;whiteSpace=wrap;html=1;" vertex="1" parent="1">
          <mxGeometry x="790" y="-210" width="310" height="550" as="geometry">
            <mxRectangle x="650" y="-210" width="280" height="30" as="alternateBounds" />
          </mxGeometry>
        </mxCell>
        <mxCell id="H5fF8uCBY2ygvBB53Js9-103" style="edgeStyle=orthogonalEdgeStyle;curved=1;rounded=0;orthogonalLoop=1;jettySize=auto;html=1;" edge="1" parent="H5fF8uCBY2ygvBB53Js9-102" source="H5fF8uCBY2ygvBB53Js9-104" target="H5fF8uCBY2ygvBB53Js9-106">
          <mxGeometry relative="1" as="geometry" />
        </mxCell>
        <mxCell id="H5fF8uCBY2ygvBB53Js9-104" value="&lt;div style=&quot;&quot;&gt;&lt;span style=&quot;background-color: transparent; color: light-dark(rgb(0, 0, 0), rgb(255, 255, 255));&quot;&gt;Introducing&amp;nbsp;&lt;/span&gt;&lt;span style=&quot;background-color: transparent; color: light-dark(rgb(0, 0, 0), rgb(255, 255, 255));&quot;&gt;the above concept&lt;/span&gt;&lt;span style=&quot;background-color: transparent; color: light-dark(rgb(0, 0, 0), rgb(255, 255, 255));&quot;&gt;&amp;nbsp;in an approachable superficial way.&lt;/span&gt;&lt;/div&gt;" style="rounded=1;whiteSpace=wrap;html=1;arcSize=15;spacingLeft=8;spacingRight=8;align=left;" vertex="1" parent="H5fF8uCBY2ygvBB53Js9-102">
          <mxGeometry x="20" y="35" width="270" height="55" as="geometry" />
        </mxCell>
        <mxCell id="H5fF8uCBY2ygvBB53Js9-106" value="&lt;div style=&quot;&quot;&gt;&lt;span style=&quot;background-color: transparent; color: light-dark(rgb(0, 0, 0), rgb(255, 255, 255));&quot;&gt;Understanding the above concept through modeling using:&lt;/span&gt;&lt;/div&gt;&lt;div style=&quot;&quot;&gt;&lt;div style=&quot;text-align: center;&quot;&gt;&lt;span style=&quot;background-color: transparent; color: light-dark(rgb(0, 0, 0), rgb(255, 255, 255));&quot;&gt;Real-World Objects&lt;/span&gt;&lt;/div&gt;&lt;div style=&quot;&quot;&gt;&lt;span style=&quot;background-color: transparent; color: light-dark(rgb(0, 0, 0), rgb(255, 255, 255));&quot;&gt;By circling the larger group of objects&lt;/span&gt;&lt;/div&gt;&lt;/div&gt;" style="rounded=1;whiteSpace=wrap;html=1;arcSize=15;spacingLeft=8;spacingRight=8;align=left;" vertex="1" parent="H5fF8uCBY2ygvBB53Js9-102">
          <mxGeometry x="20" y="134" width="270" height="70" as="geometry" />
        </mxCell>
        <mxCell id="H5fF8uCBY2ygvBB53Js9-107" style="edgeStyle=orthogonalEdgeStyle;curved=1;rounded=0;orthogonalLoop=1;jettySize=auto;html=1;" edge="1" parent="H5fF8uCBY2ygvBB53Js9-102" source="H5fF8uCBY2ygvBB53Js9-108" target="H5fF8uCBY2ygvBB53Js9-111">
          <mxGeometry relative="1" as="geometry">
            <mxPoint x="155" y="465.0000000000002" as="targetPoint" />
          </mxGeometry>
        </mxCell>
        <mxCell id="H5fF8uCBY2ygvBB53Js9-108" value="&lt;div style=&quot;&quot;&gt;&lt;span style=&quot;background-color: transparent; color: light-dark(rgb(0, 0, 0), rgb(255, 255, 255));&quot;&gt;Understanding the above concept through modeling using:&lt;/span&gt;&lt;/div&gt;&lt;div style=&quot;&quot;&gt;&lt;div style=&quot;text-align: center;&quot;&gt;&lt;span style=&quot;background-color: transparent; color: light-dark(rgb(0, 0, 0), rgb(255, 255, 255));&quot;&gt;Base-10 Blocks&lt;/span&gt;&lt;/div&gt;&lt;/div&gt;" style="rounded=1;whiteSpace=wrap;html=1;arcSize=15;spacingLeft=8;spacingRight=8;align=left;" vertex="1" parent="H5fF8uCBY2ygvBB53Js9-102">
          <mxGeometry x="20" y="342" width="270" height="70" as="geometry" />
        </mxCell>
        <mxCell id="H5fF8uCBY2ygvBB53Js9-111" value="&lt;div style=&quot;&quot;&gt;&lt;span style=&quot;background-color: transparent; color: light-dark(rgb(0, 0, 0), rgb(255, 255, 255));&quot;&gt;Understanding the above concept through modeling using:&lt;/span&gt;&lt;/div&gt;&lt;div style=&quot;&quot;&gt;&lt;div style=&quot;text-align: center;&quot;&gt;&lt;span style=&quot;background-color: transparent; color: light-dark(rgb(0, 0, 0), rgb(255, 255, 255));&quot;&gt;Number Line&lt;/span&gt;&lt;/div&gt;&lt;/div&gt;" style="rounded=1;whiteSpace=wrap;html=1;arcSize=15;spacingLeft=8;spacingRight=8;align=left;" vertex="1" parent="H5fF8uCBY2ygvBB53Js9-102">
          <mxGeometry x="20" y="460" width="270" height="70" as="geometry" />
        </mxCell>
        <mxCell id="H5fF8uCBY2ygvBB53Js9-112" value="&lt;div style=&quot;&quot;&gt;&lt;span style=&quot;background-color: transparent; color: light-dark(rgb(0, 0, 0), rgb(255, 255, 255)); text-align: center;&quot;&gt;Introducing equality and inequality notations&lt;/span&gt;&lt;/div&gt;" style="rounded=1;whiteSpace=wrap;html=1;arcSize=15;spacingLeft=8;spacingRight=8;align=left;" vertex="1" parent="H5fF8uCBY2ygvBB53Js9-102">
          <mxGeometry x="20" y="250" width="270" height="47" as="geometry" />
        </mxCell>
        <mxCell id="H5fF8uCBY2ygvBB53Js9-105" style="edgeStyle=orthogonalEdgeStyle;curved=1;rounded=0;orthogonalLoop=1;jettySize=auto;html=1;" edge="1" parent="H5fF8uCBY2ygvBB53Js9-102" source="H5fF8uCBY2ygvBB53Js9-106" target="H5fF8uCBY2ygvBB53Js9-112">
          <mxGeometry relative="1" as="geometry">
            <mxPoint x="155" y="242" as="targetPoint" />
          </mxGeometry>
        </mxCell>
        <mxCell id="H5fF8uCBY2ygvBB53Js9-113" style="edgeStyle=orthogonalEdgeStyle;curved=1;rounded=0;orthogonalLoop=1;jettySize=auto;html=1;" edge="1" parent="H5fF8uCBY2ygvBB53Js9-102" source="H5fF8uCBY2ygvBB53Js9-112" target="H5fF8uCBY2ygvBB53Js9-108">
          <mxGeometry relative="1" as="geometry" />
        </mxCell>
        <mxCell id="H5fF8uCBY2ygvBB53Js9-115" value="Mindmap" style="swimlane;startSize=20;horizontal=1;containerType=tree;" vertex="1" parent="1">
          <mxGeometry x="710" y="-416" width="420" height="126" as="geometry" />
        </mxCell>
        <mxCell id="H5fF8uCBY2ygvBB53Js9-116" value="" style="edgeStyle=entityRelationEdgeStyle;startArrow=none;endArrow=none;segment=10;curved=1;sourcePerimeterSpacing=0;targetPerimeterSpacing=0;rounded=0;" edge="1" parent="H5fF8uCBY2ygvBB53Js9-115" source="H5fF8uCBY2ygvBB53Js9-120" target="H5fF8uCBY2ygvBB53Js9-121">
          <mxGeometry relative="1" as="geometry" />
        </mxCell>
        <mxCell id="H5fF8uCBY2ygvBB53Js9-117" value="" style="edgeStyle=entityRelationEdgeStyle;startArrow=none;endArrow=none;segment=10;curved=1;sourcePerimeterSpacing=0;targetPerimeterSpacing=0;rounded=0;" edge="1" parent="H5fF8uCBY2ygvBB53Js9-115" source="H5fF8uCBY2ygvBB53Js9-120" target="H5fF8uCBY2ygvBB53Js9-122">
          <mxGeometry relative="1" as="geometry" />
        </mxCell>
        <mxCell id="H5fF8uCBY2ygvBB53Js9-118" value="" style="edgeStyle=entityRelationEdgeStyle;startArrow=none;endArrow=none;segment=10;curved=1;sourcePerimeterSpacing=0;targetPerimeterSpacing=0;rounded=0;" edge="1" parent="H5fF8uCBY2ygvBB53Js9-115" source="H5fF8uCBY2ygvBB53Js9-120" target="H5fF8uCBY2ygvBB53Js9-123">
          <mxGeometry relative="1" as="geometry" />
        </mxCell>
        <mxCell id="H5fF8uCBY2ygvBB53Js9-119" value="" style="edgeStyle=entityRelationEdgeStyle;startArrow=none;endArrow=none;segment=10;curved=1;sourcePerimeterSpacing=0;targetPerimeterSpacing=0;rounded=0;" edge="1" parent="H5fF8uCBY2ygvBB53Js9-115" source="H5fF8uCBY2ygvBB53Js9-120" target="H5fF8uCBY2ygvBB53Js9-124">
          <mxGeometry relative="1" as="geometry" />
        </mxCell>
        <mxCell id="H5fF8uCBY2ygvBB53Js9-120" value="Central Idea" style="ellipse;whiteSpace=wrap;html=1;align=center;treeFolding=1;treeMoving=1;newEdgeStyle={&quot;edgeStyle&quot;:&quot;entityRelationEdgeStyle&quot;,&quot;startArrow&quot;:&quot;none&quot;,&quot;endArrow&quot;:&quot;none&quot;,&quot;segment&quot;:10,&quot;curved&quot;:1,&quot;sourcePerimeterSpacing&quot;:0,&quot;targetPerimeterSpacing&quot;:0};" vertex="1" parent="H5fF8uCBY2ygvBB53Js9-115">
          <mxGeometry x="160" y="60" width="100" height="40" as="geometry" />
        </mxCell>
        <mxCell id="H5fF8uCBY2ygvBB53Js9-121" value="Topic" style="whiteSpace=wrap;html=1;rounded=1;arcSize=50;align=center;verticalAlign=middle;strokeWidth=1;autosize=1;spacing=4;treeFolding=1;treeMoving=1;newEdgeStyle={&quot;edgeStyle&quot;:&quot;entityRelationEdgeStyle&quot;,&quot;startArrow&quot;:&quot;none&quot;,&quot;endArrow&quot;:&quot;none&quot;,&quot;segment&quot;:10,&quot;curved&quot;:1,&quot;sourcePerimeterSpacing&quot;:0,&quot;targetPerimeterSpacing&quot;:0};" vertex="1" parent="H5fF8uCBY2ygvBB53Js9-115">
          <mxGeometry x="320" y="40" width="80" height="20" as="geometry" />
        </mxCell>
        <mxCell id="H5fF8uCBY2ygvBB53Js9-122" value="Branch" style="whiteSpace=wrap;html=1;shape=partialRectangle;top=0;left=0;bottom=1;right=0;points=[[0,1],[1,1]];fillColor=none;align=center;verticalAlign=bottom;routingCenterY=0.5;snapToPoint=1;autosize=1;treeFolding=1;treeMoving=1;newEdgeStyle={&quot;edgeStyle&quot;:&quot;entityRelationEdgeStyle&quot;,&quot;startArrow&quot;:&quot;none&quot;,&quot;endArrow&quot;:&quot;none&quot;,&quot;segment&quot;:10,&quot;curved&quot;:1,&quot;sourcePerimeterSpacing&quot;:0,&quot;targetPerimeterSpacing&quot;:0};" vertex="1" parent="H5fF8uCBY2ygvBB53Js9-115">
          <mxGeometry x="320" y="80" width="72" height="26" as="geometry" />
        </mxCell>
        <mxCell id="H5fF8uCBY2ygvBB53Js9-123" value="Topic" style="whiteSpace=wrap;html=1;rounded=1;arcSize=50;align=center;verticalAlign=middle;strokeWidth=1;autosize=1;spacing=4;treeFolding=1;treeMoving=1;newEdgeStyle={&quot;edgeStyle&quot;:&quot;entityRelationEdgeStyle&quot;,&quot;startArrow&quot;:&quot;none&quot;,&quot;endArrow&quot;:&quot;none&quot;,&quot;segment&quot;:10,&quot;curved&quot;:1,&quot;sourcePerimeterSpacing&quot;:0,&quot;targetPerimeterSpacing&quot;:0};" vertex="1" parent="H5fF8uCBY2ygvBB53Js9-115">
          <mxGeometry x="20" y="40" width="80" height="20" as="geometry" />
        </mxCell>
        <mxCell id="H5fF8uCBY2ygvBB53Js9-124" value="Branch" style="whiteSpace=wrap;html=1;shape=partialRectangle;top=0;left=0;bottom=1;right=0;points=[[0,1],[1,1]];fillColor=none;align=center;verticalAlign=bottom;routingCenterY=0.5;snapToPoint=1;autosize=1;treeFolding=1;treeMoving=1;newEdgeStyle={&quot;edgeStyle&quot;:&quot;entityRelationEdgeStyle&quot;,&quot;startArrow&quot;:&quot;none&quot;,&quot;endArrow&quot;:&quot;none&quot;,&quot;segment&quot;:10,&quot;curved&quot;:1,&quot;sourcePerimeterSpacing&quot;:0,&quot;targetPerimeterSpacing&quot;:0};" vertex="1" parent="H5fF8uCBY2ygvBB53Js9-115">
          <mxGeometry x="20" y="80" width="72" height="26" as="geometry" />
        </mxCell>
      </root>
    </mxGraphModel>
  </diagram>
</mxfile>
